<svg xmlns="http://www.w3.org/2000/svg" viewBox="0 0 283.14 188.51"><defs><style>.cls-1,.cls-8{fill:#1aa2dd;}.cls-2{fill:#1d75bb;}.cls-3{fill:#74c9e3;}.cls-4{fill:#217693;}.cls-5{fill:#c9e8f4;}.cls-6{fill:#282828;}.cls-7,.cls-9{fill:#fff;}.cls-7,.cls-8{stroke:#1c75bb;stroke-width:5px;}.cls-7{stroke-linejoin:round;}.cls-8{stroke-miterlimit:10;}.cls-10{fill:#1d1d1b;}</style></defs><title>Fichier 4Poster</title><g id="Calque_2" data-name="Calque 2"><g id="Calque_6" data-name="Calque 6"><rect class="cls-1" x="93.81" y="15.72" width="25.92" height="23.99"/><path class="cls-2" d="M117.65,17.79V37.63H95.88V17.79h21.77m4.15-4.15H91.73V41.78H121.8V13.64Z"/><rect class="cls-2" x="105.73" y="21.62" width="2.07" height="12.18"/><rect class="cls-2" x="99.81" y="21.62" width="2.07" height="12.18"/><rect class="cls-2" x="111.65" y="21.62" width="2.07" height="12.18"/><path class="cls-2" d="M127.74,23.21c0,3.67,2.67,6.65,6,6.65s6-3,6-6.65Z"/><path class="cls-3" d="M158.86,23.21h-39.5V7.74h77.77V23.21H158.86Z"/><path class="cls-1" d="M163.5,1.33V79.59h25.74V1.33Zm4.92,6.41h15.9V73.18h-15.9Z"/><path class="cls-4" d="M155.61,83.22v4.59h41.52V83.22a3.46,3.46,0,0,0-3.26-3.63h-35A3.46,3.46,0,0,0,155.61,83.22Z"/><path class="cls-2" d="M156.76,29.46,162,13.82h22.3V44.47H156.76Z"/><path class="cls-5" d="M161.52,30.42l3.8-11.31h14.24V30.42Z"/><path class="cls-6" d="M188.06,61.42a1.2,1.2,0,1,0,2.38,0V24.54h6.69a1.26,1.26,0,0,0,1.19-1.33V7.74a1.27,1.27,0,0,0-1.19-1.33h-6.69V1.33A1.27,1.27,0,0,0,189.25,0H163.5a1.27,1.27,0,0,0-1.19,1.33V6.41H142.9a1.27,1.27,0,0,0-1.2,1.33,1.27,1.27,0,0,0,1.2,1.32h6.76l-8.47,12-8.46-12h5.4a1.26,1.26,0,0,0,1.19-1.32,1.27,1.27,0,0,0-1.19-1.33H119.37a1.27,1.27,0,0,0-1.19,1.33V23.21a1.26,1.26,0,0,0,1.19,1.33h7.28a7.64,7.64,0,0,0,5.88,6.53v4.2a6,6,0,0,0,0,11.31v2.26a5.73,5.73,0,0,0-4,5.66,6.07,6.07,0,0,0,1.8,4.37l3.43-1.21a3.18,3.18,0,0,1,0-6.32A1.27,1.27,0,0,0,134.91,50V46.58a6,6,0,0,0,0-11.31v-4.2a7.63,7.63,0,0,0,5.87-6.53h16.37L155.65,29a1.43,1.43,0,0,0-.07.46v15a1.26,1.26,0,0,0,1.19,1.32h5.54V78.27h-3.43a4.73,4.73,0,0,0-4.46,5v4.59a1.36,1.36,0,0,0,.05.36,1.21,1.21,0,0,0,1.15,1h41.51A1.22,1.22,0,0,0,198.3,88a1.49,1.49,0,0,0,0-.21V83.22a4.72,4.72,0,0,0-4.45-5h-3.43V66.71a1.2,1.2,0,1,0-2.38,0V78.27H164.69V45.79h2.55V73.18a1.27,1.27,0,0,0,1.19,1.33h15.89a1.27,1.27,0,0,0,1.19-1.33V7.74a1.27,1.27,0,0,0-1.19-1.33H168.43a1.27,1.27,0,0,0-1.19,1.33V12.5h-2.55V2.65h23.37Zm7.88-52.36V19.38l-5.5-7.81V9.06Zm-5.5,6.8,4.25,6h-4.25Zm-20.82-6.8h11.23l-4,3.44h-7.26Zm13.51,1.38V12.5h-2.37Zm0,32.7H158V29.7l2.18-6.49,2.71-8.07h20.28ZM169.62,71.86V61.06l11.46,10.8Zm13.51-1.53L170.31,58.25l12.82-11.08ZM169.62,55.5V45.79h11.23Zm26.32,27.72v3.27H156.81V83.22a2.19,2.19,0,0,1,2.07-2.3h35A2.19,2.19,0,0,1,195.94,83.22ZM162.31,12.5H162a1.2,1.2,0,0,0-1.11.86l-1.08,3.19-5.28-7.49h7.76ZM152.1,9.88l6.76,9.58L158,21.89h-14.4Zm-13.35,12H121.81l8.47-12Zm-5,6.64a4.92,4.92,0,0,1-4.64-4h9.27A4.92,4.92,0,0,1,133.72,28.53Zm-13.16-9.15V9.06h7.27Zm16,21.55a3.19,3.19,0,0,1-1.65,2.86v-.91a1.2,1.2,0,1,0-2.38,0v.91a3.18,3.18,0,0,1-1.66-2.86,2.86,2.86,0,1,1,5.69,0Zm2.38,13.57a1.2,1.2,0,1,0-2.38,0,3,3,0,0,1-2.84,3.16l3.43,1.21A6.1,6.1,0,0,0,138.94,54.5Z"/><path class="cls-2" d="M148.45,63.12l-11.3-4.25h-6.86L119,63.12a.11.11,0,0,0-.08.11c0,.33,1.25,1.2,1.25,1.71l24.44.55C144.6,64.91,148.92,63.3,148.45,63.12Zm-21.84-.07,7.11-2.67,7.11,2.67Z"/><path class="cls-6" d="M164.21,18.65,160.41,30a1.43,1.43,0,0,0,.13,1.21,1.17,1.17,0,0,0,1,.57h18a1.26,1.26,0,0,0,1.19-1.32V19.11a1.26,1.26,0,0,0-1.19-1.32H165.32A1.2,1.2,0,0,0,164.21,18.65Zm-1,10.45,2.91-8.66h12.22V29.1Z"/><rect class="cls-1" x="41.06" y="39.74" width="25.92" height="23.99"/><path class="cls-2" d="M64.91,41.82V61.66H43.14V41.82H64.91m4.14-4.15H39V65.81H69.05V37.67Z"/><rect class="cls-2" x="52.99" y="45.65" width="2.07" height="12.18"/><rect class="cls-2" x="47.06" y="45.65" width="2.07" height="12.18"/><rect class="cls-2" x="58.91" y="45.65" width="2.07" height="12.18"/><rect class="cls-1" x="41.06" y="63.46" width="25.92" height="23.99"/><path class="cls-2" d="M64.91,65.53V85.37H43.14V65.53H64.91m4.14-4.15H39V89.52H69.05V61.38Z"/><rect class="cls-2" x="52.99" y="69.36" width="2.07" height="12.18"/><rect class="cls-2" x="47.06" y="69.36" width="2.07" height="12.18"/><rect class="cls-2" x="58.91" y="69.36" width="2.07" height="12.18"/><rect class="cls-1" x="66.95" y="39.74" width="25.92" height="23.99"/><path class="cls-2" d="M90.79,41.82V61.66H69V41.82H90.79m4.15-4.15H64.88V65.81H94.94V37.67Z"/><rect class="cls-2" x="78.88" y="45.65" width="2.07" height="12.18"/><rect class="cls-2" x="72.95" y="45.65" width="2.07" height="12.18"/><rect class="cls-2" x="84.8" y="45.65" width="2.07" height="12.18"/><rect class="cls-1" x="66.95" y="63.46" width="25.92" height="23.99"/><path class="cls-2" d="M90.79,65.53V85.37H69V65.53H90.79m4.15-4.15H64.88V89.52H94.94V61.38Z"/><rect class="cls-2" x="78.88" y="69.36" width="2.07" height="12.18"/><rect class="cls-2" x="72.95" y="69.36" width="2.07" height="12.18"/><rect class="cls-2" x="84.8" y="69.36" width="2.07" height="12.18"/><rect class="cls-1" x="93.81" y="39.74" width="25.92" height="23.99"/><path class="cls-2" d="M117.65,41.82V61.66H95.88V41.82h21.77m4.15-4.15H91.73V65.81H121.8V37.67Z"/><rect class="cls-2" x="105.73" y="45.65" width="2.07" height="12.18"/><rect class="cls-2" x="99.81" y="45.65" width="2.07" height="12.18"/><rect class="cls-2" x="111.65" y="45.65" width="2.07" height="12.18"/><rect class="cls-1" x="93.81" y="63.46" width="25.92" height="23.99"/><path class="cls-2" d="M117.65,65.53V85.37H95.88V65.53h21.77m4.15-4.15H91.73V89.52H121.8V61.38Z"/><rect class="cls-2" x="105.73" y="69.36" width="2.07" height="12.18"/><rect class="cls-2" x="99.81" y="69.36" width="2.07" height="12.18"/><rect class="cls-2" x="111.65" y="69.36" width="2.07" height="12.18"/><rect class="cls-1" x="14.7" y="63.46" width="25.92" height="23.99"/><path class="cls-2" d="M38.54,65.53V85.37H16.77V65.53H38.54m4.15-4.15H12.62V89.52H42.69V61.38Z"/><rect class="cls-2" x="26.62" y="69.36" width="2.07" height="12.18"/><rect class="cls-2" x="20.7" y="69.36" width="2.07" height="12.18"/><rect class="cls-2" x="32.54" y="69.36" width="2.07" height="12.18"/><rect class="cls-1" x="120.75" y="64.77" width="25.92" height="23.99"/><path class="cls-2" d="M144.6,66.85V86.69H122.83V66.85H144.6m4.14-4.15H118.68V90.84h30.06V62.7Z"/><rect class="cls-2" x="132.68" y="70.68" width="2.07" height="12.18"/><rect class="cls-2" x="126.75" y="70.68" width="2.07" height="12.18"/><rect class="cls-2" x="138.6" y="70.68" width="2.07" height="12.18"/><polygon class="cls-2" points="137.15 58.87 130.29 58.87 133.72 57.66 137.15 58.87"/></g><g id="Calque_5" data-name="Calque 5"><path class="cls-7" d="M131,181.85a189.46,189.46,0,0,1-26.73,3.8l-.32,0c-24.89,1.45-61.21-1.95-83.79-28.95a68.94,68.94,0,0,0,5.67,6.14,65.94,65.94,0,0,1-5.72-6.19c.08,0,5.47,3.06,16.12,3.06,9,0,21.65-2.14,38-10C74.21,149.75,98.73,188.31,131,181.85Z"/><path class="cls-8" d="M103.9,185.67l-2.24.13c-.93,0-1.85.09-2.78.12-.63,0-1.27.05-1.9.06H96.7l-1.16,0c-18.13.25-36.79-2.71-53.25-11.36-.59-.31-1.17-.62-1.74-.94s-1.14-.65-1.69-1-1-.59-1.48-.89q-1-.62-2-1.26l-1.1-.75c-.59-.41-1.17-.82-1.73-1.24l-1.28-1-.3-.24c-.43-.33-.85-.67-1.27-1l-1.36-1.14c-.89-.77-1.75-1.55-2.58-2.35l0,0a68.94,68.94,0,0,1-5.67-6.14C42.69,183.72,79,187.12,103.9,185.67Z"/><path class="cls-8" d="M280.25,69.45c-8.68,27.06-41.87,25-41.87,25-11.24,29.11-46.47,62.3-61.79,71.49-.63.38-1.36.79-2.18,1.22l-.59.31c-1.57.81-3.45,1.71-5.58,2.64-.57.26-1.17.51-1.78.77l-2,.83-1,.41q-2.64,1.05-5.61,2.11l-1.5.54c-3.65,1.26-7.63,2.53-11.89,3.73l-1.83.51q-2.78.75-5.69,1.47l-2,.46c-1.31.31-2.64.6-4,.89h0c-32.22,6.46-56.74-32.1-56.74-32.1-16.38,7.84-29.07,10-38,10-10.65,0-16-3-16.12-3.06-.93-1.12-1.79-2.26-2.62-3.41l-.06-.09c-.82-1.14-1.6-2.3-2.32-3.47-.38-.59-.74-1.19-1.09-1.78s-.7-1.22-1-1.83-.64-1.19-.95-1.79-.62-1.21-.91-1.82-.58-1.23-.86-1.85c-.54-1.2-1-2.4-1.51-3.59a.19.19,0,0,0,0-.08c-.24-.6-.46-1.2-.68-1.8s-.43-1.22-.64-1.83-.4-1.21-.59-1.82-.37-1.21-.54-1.82-.34-1.21-.5-1.81c-.29-1.08-.55-2.15-.79-3.22-.05-.26-.11-.52-.17-.78-.1-.45-.19-.9-.28-1.34l-.21-1.1c-.07-.34-.13-.68-.19-1s-.16-.91-.23-1.37-.18-1.13-.27-1.69a105.84,105.84,0,0,1-1-11.45c0-.67,0-1.32,0-2a91.34,91.34,0,0,1,1-15.8H192.93c21.45,0,26-6.47,26-6.47-16.34-26,2.56-49.53,2.56-49.53C244,45.45,242.46,64.34,242.46,64.34,267.48,58.73,280.25,69.45,280.25,69.45Z"/><path class="cls-8" d="M280.25,69.45c-8.68,27.06-41.87,25-41.87,25-9.71,37.28-46.47,62.3-61.79,71.49-.63.38-1.36.79-2.18,1.22l-.59.31c-1.57.81-3.45,1.71-5.58,2.64-.57.26-1.17.51-1.78.77l-2,.83-1,.41q-2.64,1.05-5.61,2.11l-1.5.54c-3.65,1.26-7.63,2.53-11.89,3.73l-1.83.51q-2.78.75-5.69,1.47l-2,.46c-1.31.31-2.64.6-4,.89h0c-32.22,6.46-56.74-32.1-56.74-32.1-16.38,7.84-29.07,10-38,10-10.65,0-16-3-16.12-3.06q-1.38-1.68-2.62-3.41l-.06-.09c-.82-1.15-1.59-2.3-2.32-3.47-.38-.59-.74-1.19-1.09-1.78s-.7-1.22-1-1.83-.64-1.19-.95-1.79-.62-1.21-.91-1.82-.58-1.23-.86-1.85c-.54-1.2-1-2.4-1.51-3.59a.19.19,0,0,0,0-.08c-.24-.6-.46-1.2-.68-1.8s-.43-1.22-.64-1.83-.4-1.21-.59-1.82-.37-1.21-.54-1.82-.34-1.21-.5-1.81c-.29-1.08-.55-2.15-.79-3.22-.05-.26-.11-.52-.17-.78-.1-.45-.19-.9-.28-1.34l-.21-1.1c-.07-.34-.13-.68-.19-1s-.16-.91-.23-1.37-.18-1.13-.27-1.69a105.84,105.84,0,0,1-1-11.45c0-.67,0-1.32,0-2a91.34,91.34,0,0,1,1-15.8H192.93c21.45,0,26-6.47,26-6.47-16.34-26,2.56-49.53,2.56-49.53C244,45.45,242.46,64.34,242.46,64.34,267.48,58.73,280.25,69.45,280.25,69.45Z"/><path class="cls-8" d="M103.9,185.67l-2.24.13c-.93,0-1.85.09-2.78.12-.63,0-1.27.05-1.9.06H96.7l-1.16,0c-18.13.25-36.79-2.71-53.25-11.36-.59-.31-1.17-.62-1.74-.94s-1.14-.65-1.69-1-1-.59-1.48-.89q-1-.62-2-1.26l-1.1-.75c-.59-.41-1.17-.82-1.73-1.24l-1.28-1-.3-.24c-.43-.33-.85-.67-1.27-1l-1.36-1.14c-.89-.77-1.75-1.55-2.58-2.35l0,0a68.94,68.94,0,0,1-5.67-6.14C42.69,183.72,79,187.12,103.9,185.67Z"/><circle class="cls-9" cx="91.48" cy="131.75" r="9.53"/><circle class="cls-10" cx="91.48" cy="131.75" r="5.11"/><path class="cls-9" d="M98,129.34a2.57,2.57,0,0,1-1.4,2.33,2.16,2.16,0,0,1-.91.2A2.54,2.54,0,1,1,98,129.34Z"/><path class="cls-1" d="M65.18,142.21s22.07,42.52,44.43,40.44c0,0,19.5-2.74,23.86-4,5.39-1.52-3-19.7-3-19.7L72.67,140.85Z"/></g></g></svg>